IKResults
version=1
nRows=10
nColumns=40
inDegrees=yes

Units are S.I. units (second, meters, Newtons, ...)
Angles are in degrees.

endheader
time	pelvis_tilt	pelvis_list	pelvis_rotation	pelvis_tx	pelvis_ty	pelvis_tz	hip_flexion_r	hip_adduction_r	hip_rotation_r	knee_angle_r	knee_angle_r_beta	ankle_angle_r	subtalar_angle_r	mtp_angle_r	hip_flexion_l	hip_adduction_l	hip_rotation_l	knee_angle_l	knee_angle_l_beta	ankle_angle_l	subtalar_angle_l	mtp_angle_l	lumbar_extension	lumbar_bending	lumbar_rotation	arm_flex_r	arm_add_r	arm_rot_r	elbow_flex_r	pro_sup_r	wrist_flex_r	wrist_dev_r	arm_flex_l	arm_add_l	arm_rot_l	elbow_flex_l	pro_sup_l	wrist_flex_l	wrist_dev_l
      0.00000000	     14.31269697	     -8.11026945	      5.77435439	     -0.98871356	      0.93435324	     -1.01580637	      0.47909603	      7.47271162	    -21.87373552	    -15.65972161	     -0.27331370	      1.17264077	      1.77039780	     -9.07464547	    -23.53832693	      8.31576569	      1.25462022	    -36.50823766	     -0.63718895	      2.75491065	     17.68507073	      8.05033993	    -22.87179535	     12.03319668	     -5.04142626	     -3.06926877	    -10.14719213	     -1.54072311	     16.75608051	     89.95437384	      0.00000000	      0.00000000	     14.08401327	      7.28255895	      3.18947248	     46.70239472	     89.95437384	      0.00000000	      0.00000000
      0.01000000	     14.77109575	     -7.76809248	      5.74383441	     -0.98146665	      0.93588222	     -1.01464459	     -0.46990916	      7.29590682	    -21.61769329	    -15.85402479	     -0.27670493	      1.54869665	      1.70629038	     -8.98905562	    -23.10435889	      8.01508668	      1.19602440	    -38.60701431	     -0.67381951	      1.79646704	     17.81245038	      8.01659710	    -23.35651002	     11.60377920	     -4.84145583	     -2.87963873	    -10.09382214	     -1.44030818	     17.02260212	     89.95437384	      0.00000000	      0.00000000	     13.97120557	      7.23173337	      3.23530747	     46.33303508	     89.95437384	      0.00000000	      0.00000000
      0.02000000	     15.12364893	     -7.55714332	      6.18634204	     -0.97406874	      0.93715318	     -1.01382140	     -1.49073129	      7.36670969	    -21.42572463	    -15.61101282	     -0.27246357	      2.22864228	      1.66485196	     -8.99748351	    -22.30561257	      8.03657632	      0.74870642	    -40.92295636	     -0.71424033	     -0.01792036	     18.18746897	      8.22725948	    -23.55174092	     11.44413395	     -5.17814384	     -2.66575718	     -9.98745347	     -1.44694591	     17.31126209	     89.95437384	      0.00000000	      0.00000000	     13.80672444	      7.31811970	      3.16221311	     45.71953129	     89.95437384	      0.00000000	      0.00000000
      0.03000000	     15.47822601	     -7.58280092	      6.67959371	     -0.96697487	      0.93827395	     -1.01302112	     -2.46300148	      7.70248328	    -21.33138253	    -15.31216630	     -0.26724772	      2.29455529	      1.11303999	     -9.08369817	    -21.33788402	      8.35669900	      0.33529629	    -43.48333641	     -0.75892739	     -0.95360465	     18.30762830	      9.15243466	    -23.78421049	     11.55031089	     -5.40086998	     -2.42227196	     -9.93480640	     -1.42982212	     17.56007595	     89.95437384	      0.00000000	      0.00000000	     13.60984811	      7.31722061	      3.19625877	     45.21575923	     89.95437384	      0.00000000	      0.00000000
      0.04000000	     15.84980893	     -7.34846889	      6.78837689	     -0.96008422	      0.93944504	     -1.01208274	     -3.34209039	      7.64146848	    -20.99239420	    -15.37819436	     -0.26840012	      2.76920457	      1.07083472	     -9.08962836	    -20.52539087	      8.19735280	      0.05072312	    -45.75175744	     -0.79851881	     -2.18217227	     18.50611592	      9.42706777	    -24.14752954	     11.27775139	     -5.32907634	     -2.16238425	     -9.92012105	     -1.31321860	     17.85340476	     89.95437384	      0.00000000	      0.00000000	     13.49884609	      7.27213491	      3.22738296	     44.51975556	     89.95437384	      0.00000000	      0.00000000
      0.05000000	     16.30099460	     -7.09401556	      6.75597995	     -0.95328365	      0.94066986	     -1.01102606	     -4.25474177	      7.51298657	    -20.77779386	    -15.55465050	     -0.27147987	      3.02425097	      1.03367280	     -9.04167251	    -19.90868701	      7.96012898	     -0.02863631	    -47.76977867	     -0.83373992	     -2.74285971	     18.59376321	      9.45762317	    -24.63670603	     10.93106621	     -5.10005647	     -1.85783480	     -9.92203345	     -1.19029921	     18.09811282	     89.95437384	      0.00000000	      0.00000000	     13.33477022	      7.18563359	      3.34939045	     43.92793343	     89.95437384	      0.00000000	      0.00000000
      0.06000000	     16.71759826	     -6.87845128	      6.83941869	     -0.94656247	      0.94185491	     -1.01003069	     -5.19240085	      7.46980408	    -20.61919068	    -15.57681480	     -0.27186671	      3.34345465	      1.04177100	     -9.02365222	    -19.18345555	      7.84915598	     -0.10193751	    -49.74086796	     -0.86814192	     -2.88141204	     18.80087489	      9.52374976	    -25.06047375	     10.65095323	     -4.95944453	     -1.55811041	     -9.92552065	     -1.06037915	     18.33332646	     89.95437384	      0.00000000	      0.00000000	     13.15570889	      7.14160929	      3.43072753	     43.23422709	     89.95437384	      0.00000000	      0.00000000
      0.07000000	     16.53614782	     -7.15762926	      7.42602777	     -0.94022151	      0.94189206	     -1.00935311	     -5.61489903	      8.18549556	    -20.12339944	    -14.93794521	     -0.26071633	      3.26905816	     -0.31960299	    -10.35284788	    -17.38970590	      8.34103188	     -0.66849646	    -52.21912170	     -0.91139561	     -1.29645789	     18.77977336	     18.41629104	    -24.70295429	     11.02809845	     -5.19674712	     -1.35152358	    -10.05581609	     -0.34246150	     18.72557834	     89.95437384	      0.00000000	      0.00000000	     13.02045645	      6.98893796	      3.66016899	     42.17773095	     89.95437384	      0.00000000	      0.00000000
      0.08000000	     16.90043617	     -6.88540236	      7.32138922	     -0.93372448	      0.94298710	     -1.00819621	     -6.46811251	      8.04410103	    -20.07423615	    -15.02938772	     -0.26231230	      3.51218519	     -0.29742862	    -10.28759191	    -16.74853916	      8.11955418	     -0.54342293	    -53.61990786	     -0.93584394	     -0.72227166	     18.93615915	     18.16596291	    -25.13094717	     10.61611513	     -4.92155980	     -0.96748597	    -10.07670643	     -0.28856499	     18.95498410	     89.95437384	      0.00000000	      0.00000000	     12.74412436	      6.97296010	      3.72783955	     41.53539137	     89.95437384	      0.00000000	      0.00000000
      0.09000000	     17.04822433	     -6.75131013	      7.59650945	     -0.92732391	      0.94371495	     -1.00758717	     -7.25910948	      8.16226954	    -19.92521504	    -14.66068013	     -0.25587714	      3.99849582	     -0.08799938	    -10.31324609	    -15.73478562	      8.01945460	     -1.00091732	    -55.04597219	     -0.96073345	      0.98832814	     18.94583285	     18.01942520	    -25.22748955	     10.51336837	     -4.88869862	     -0.68762583	    -10.14961198	     -0.18010620	     19.25489844	     89.95437384	      0.00000000	      0.00000000	     12.64801758	      6.83360260	      3.92333747	     40.33883378	     89.95437384	      0.00000000	      0.00000000
